<svg xmlns="http://www.w3.org/2000/svg" version="1.1" xmlns:xlink="http://www.w3.org/1999/xlink" width="200" height="200"><svg xmlns="http://www.w3.org/2000/svg" version="1.1" xmlns:xlink="http://www.w3.org/1999/xlink" width="200" height="200"><svg xmlns="http://www.w3.org/2000/svg" version="1.1" xmlns:xlink="http://www.w3.org/1999/xlink" viewBox="0 0 200 200"><rect width="200" height="200" fill="url('#gradient')"></rect><defs><linearGradient id="gradient" gradientTransform="rotate(0 0.5 0.5)"><stop offset="0%" stop-color="#1d425b"></stop><stop offset="100%" stop-color="#1d425b"></stop></linearGradient></defs><g><g fill="#f1eee5" transform="matrix(3.9655765920826163,0,0,3.9655765920826163,6.354622727109316,128.17979532921376)" stroke="#778ca7" stroke-width="0"><path d="M20.27-5.20L20.27-5.20Q20.27-3.64 19.63-2.40Q18.98-1.15 17.80-0.48Q16.62 0.20 15.11 0.20L15.11 0.20Q13.70 0.20 12.54-0.56Q11.38-1.31 10.59-2.71L10.59-2.71Q9.75-1.27 8.60-0.54Q7.46 0.20 6.07 0.20L6.07 0.20Q3.75 0.20 2.33-1.31Q0.92-2.81 0.92-5.36L0.92-5.36Q0.92-6.91 1.56-8.16Q2.21-9.40 3.37-10.08Q4.54-10.76 6.05-10.76L6.05-10.76Q8.89-10.76 10.59-7.99L10.59-7.99Q11.40-9.35 12.56-10.05Q13.72-10.76 15.13-10.76L15.13-10.76Q17.45-10.76 18.86-9.25Q20.27-7.73 20.27-5.20ZM4.10-5.20L4.10-5.20Q4.10-3.94 4.70-3.19Q5.29-2.44 6.29-2.44L6.29-2.44Q7.64-2.44 8.56-4.17L8.56-4.17Q8.93-4.85 8.96-5.26L8.96-5.26L8.96-5.49Q8.92-5.93 8.52-6.61L8.52-6.61Q7.62-8.13 6.27-8.13L6.27-8.13Q5.29-8.13 4.70-7.37Q4.10-6.61 4.10-5.20ZM17.08-5.36L17.08-5.36Q17.08-6.58 16.49-7.35Q15.91-8.13 14.91-8.13L14.91-8.13Q13.56-8.13 12.67-6.61L12.67-6.61Q12.27-5.93 12.22-5.49L12.22-5.49L12.22-5.26Q12.27-4.77 12.71-3.99Q13.16-3.21 13.72-2.83Q14.28-2.44 14.89-2.44L14.89-2.44Q15.89-2.44 16.48-3.19Q17.08-3.95 17.08-5.36ZM29.60-3.78L29.60-3.78Q29.60-4.53 29.07-4.95Q28.54-5.37 27.20-5.82Q25.86-6.27 25.01-6.69L25.01-6.69Q22.25-8.05 22.25-10.42L22.25-10.42Q22.25-11.60 22.93-12.50Q23.62-13.41 24.88-13.91Q26.14-14.41 27.71-14.41L27.71-14.41Q29.25-14.41 30.46-13.87Q31.68-13.32 32.35-12.31Q33.03-11.30 33.03-10L33.03-10L29.61-10Q29.61-10.87 29.08-11.35Q28.54-11.83 27.64-11.83L27.64-11.83Q26.72-11.83 26.19-11.42Q25.65-11.02 25.65-10.39L25.65-10.39Q25.65-9.84 26.24-9.40Q26.83-8.96 28.30-8.48Q29.78-8.01 30.72-7.46L30.72-7.46Q33.03-6.13 33.03-3.80L33.03-3.80Q33.03-1.93 31.62-0.87Q30.21 0.20 27.76 0.20L27.76 0.20Q26.04 0.20 24.63-0.42Q23.23-1.04 22.52-2.12Q21.82-3.20 21.82-4.61L21.82-4.61L25.25-4.61Q25.25-3.47 25.84-2.92Q26.44-2.38 27.76-2.38L27.76-2.38Q28.61-2.38 29.11-2.75Q29.60-3.12 29.60-3.78ZM37.36-14.22L39.99-8.05L42.61-14.22L46.31-14.22L41.73-5.11L41.73 0L38.25 0L38.25-5.11L33.68-14.22L37.36-14.22Z"></path></g></g></svg></svg><style>@media (prefers-color-scheme: light) { :root { filter: none; } }
@media (prefers-color-scheme: dark) { :root { filter: none; } }
</style></svg>